<svg width="12" height="9" viewBox="0 0 12 9" fill="none" xmlns="http://www.w3.org/2000/svg">
<path id="Vector" d="M11.4397 0.5L1.35938 0.5C1.25732 0.500305 1.15728 0.52716 1.07003 0.577673C0.982779 0.628186 0.911621 0.700445 0.864214 0.786672C0.816806 0.872899 0.794944 0.96983 0.800983 1.06703C0.807022 1.16423 0.840731 1.25801 0.898484 1.33829L5.93863 8.28401C6.14751 8.57199 6.65041 8.57199 6.85985 8.28401L11.9 1.3383C11.9583 1.25818 11.9925 1.16435 11.9989 1.06699C12.0053 0.969626 11.9836 0.872463 11.9361 0.786053C11.8887 0.699644 11.8173 0.627292 11.7298 0.57686C11.6422 0.526429 11.5419 0.499846 11.4397 0.5Z" fill="#3A2C23"/>
</svg>
