<svg width="14" height="10" viewBox="0 0 14 10" fill="none" xmlns="http://www.w3.org/2000/svg">
<g id="Vector">
<path d="M7.19063 1.51595C7.15713 1.15794 7.33495 0.842829 7.57719 0.5477C7.85525 0.20846 8.2382 0.0714964 8.67115 0.0115445C8.87525 -0.0167256 9.07472 0.0115445 9.26645 0.0466383C9.81253 0.146315 10.3385 0.708303 10.4395 1.25006C10.4787 1.46136 10.4849 1.67046 10.4336 1.87737C10.4042 1.99605 10.4424 2.0967 10.506 2.18322C10.7101 2.46348 10.9201 2.74179 11.1858 2.97332C11.3869 3.1483 11.594 3.31889 11.8255 3.45927C11.8598 3.4819 11.8987 3.4977 11.9397 3.5057C11.9808 3.51371 12.0231 3.51374 12.0641 3.50582C12.3963 3.44367 12.7145 3.49509 13.0269 3.615C13.3108 3.72594 13.5532 3.91471 13.7227 4.157C13.9729 4.50599 14.0484 4.90274 13.9709 5.32533C13.8791 5.82493 13.5712 6.16636 13.1204 6.40983C12.8303 6.56653 12.5112 6.59992 12.1844 6.59407C12.1172 6.5931 12.0507 6.58115 11.9878 6.55873C11.8749 6.51535 11.8038 6.5541 11.7257 6.61381C11.4041 6.85922 11.1029 7.12023 10.8642 7.44607C10.7385 7.61666 10.6014 7.78141 10.4854 7.96005C10.4388 8.03359 10.4233 8.12109 10.4421 8.20497C10.4988 8.53081 10.4313 8.83861 10.2689 9.12302C9.76588 10.0052 8.59152 10.1812 7.80242 9.6175C7.4821 9.38841 7.30145 9.08817 7.20532 8.74015C7.16125 8.58077 7.16924 8.40238 7.19012 8.23276C7.203 8.12723 7.19553 8.02098 7.24166 7.91594C7.278 7.83478 7.19836 7.76216 7.15713 7.6966C6.81103 7.15435 6.32139 6.77661 5.67713 6.58481C5.60715 6.5647 5.53312 6.56069 5.46117 6.57311C5.23619 6.60723 5.01637 6.58067 4.79964 6.52437C4.77174 6.51556 4.74193 6.51358 4.713 6.51861C4.68407 6.52364 4.65696 6.53552 4.6342 6.55313C4.06518 6.94623 3.63327 7.44899 3.2967 8.02999C3.26681 8.08141 3.27093 8.13064 3.27763 8.18304C3.36757 8.80815 3.14878 9.31067 2.61662 9.69402C2.33036 9.9029 1.97602 10.0108 1.61466 9.99914C1.32758 9.99256 1.05338 9.90532 0.802374 9.75885C0.528175 9.59873 0.291086 9.39158 0.164553 9.1218C-0.0743403 8.61245 -0.0614565 8.09531 0.258098 7.6057C0.444901 7.32011 0.724579 7.09949 1.05518 6.97693C1.3495 6.86593 1.67289 6.84363 1.98112 6.91308C2.04279 6.92877 2.10827 6.92431 2.16692 6.90041C2.44782 6.78124 2.71532 6.63818 2.94829 6.44712C3.16424 6.26994 3.35623 6.07034 3.50055 5.83444C3.54745 5.75767 3.591 5.67944 3.63662 5.60194C3.6696 5.54589 3.666 5.48862 3.6526 5.4272C3.58482 5.11599 3.58121 4.81014 3.708 4.50599C3.78531 4.31907 3.87577 4.1375 4.01725 3.99299C4.21351 3.78917 4.4631 3.63786 4.74088 3.55431C5.46246 3.33717 6.27088 3.60768 6.65538 4.22524C6.83113 4.50745 6.92932 4.81452 6.88061 5.14816C6.85977 5.28437 6.89024 5.42317 6.96669 5.54028C7.27774 6.04061 7.64806 6.49318 8.12636 6.86288C8.1962 6.91674 8.25521 6.93599 8.34438 6.90626C8.64512 6.81146 8.95179 6.81414 9.25588 6.89334C9.31718 6.91071 9.38317 6.9053 9.4404 6.87823C10.0483 6.61771 10.4851 6.19366 10.7805 5.63167C10.7929 5.61074 10.8005 5.58761 10.8029 5.56374C10.8054 5.53987 10.8026 5.51579 10.7946 5.493C10.7013 5.21695 10.6934 4.92143 10.7717 4.64125C10.7853 4.59839 10.7832 4.55246 10.7658 4.51086C10.4973 3.89209 10.0746 3.40419 9.43447 3.09736C9.35943 3.05926 9.2721 3.04884 9.18939 3.06812C8.41447 3.22726 7.70347 2.87876 7.3401 2.22879C7.21357 2.00434 7.1811 1.88931 7.19063 1.51595Z" fill="#E56F20"/>
<path d="M12.2486 9.34772C11.6719 9.39158 11.1645 8.85055 11.1356 8.41554C11.1121 8.06216 11.2273 7.7685 11.4912 7.52016C11.6806 7.34225 11.9208 7.21967 12.1687 7.22113C12.9895 7.22576 13.3645 7.7646 13.3787 8.28442C13.3931 8.84373 12.8625 9.38208 12.2486 9.34772Z" fill="#E56F20"/>
<path d="M1.42654 5.41087C1.40205 5.0631 1.73965 4.74604 2.12801 4.76529C2.49627 4.78381 2.79495 5.05969 2.78181 5.41331C2.76738 5.80324 2.49215 6.03891 2.08781 6.05621C1.77676 6.06937 1.38066 5.71283 1.42654 5.41087Z" fill="#E56F20"/>
<path d="M7.55271 4.46139C7.53235 4.15456 7.85242 3.83994 8.20574 3.81995C8.56317 3.79973 8.89381 4.07219 8.91623 4.40485C8.942 4.77797 8.66703 5.08309 8.27403 5.10063C7.94107 5.11574 7.55219 4.89714 7.55271 4.46139Z" fill="#E56F20"/>
<path d="M5.48978 8.72163C5.51349 9.12351 5.14033 9.36453 4.82979 9.36746C4.73958 9.36828 4.6501 9.35201 4.56664 9.31961C4.48318 9.28721 4.40743 9.23933 4.34385 9.17879C4.28027 9.11826 4.23015 9.0463 4.19646 8.96715C4.16276 8.88801 4.14616 8.80328 4.14765 8.71798C4.14963 8.55008 4.22071 8.38951 4.3458 8.27035C4.47089 8.15119 4.64016 8.0828 4.81768 8.07971C5.10245 8.07215 5.52405 8.33389 5.48978 8.72163Z" fill="#E56F20"/>
<path d="M5.91912 7.1507C6.12657 7.13632 6.34227 7.30691 6.33402 7.53917C6.325 7.79408 6.14486 7.94543 5.89927 7.95761C5.68744 7.96833 5.49107 7.75802 5.48952 7.54331C5.48772 7.31959 5.67404 7.14924 5.91912 7.1507Z" fill="#E56F20"/>
<path d="M9.32005 6.03915C9.09018 6.0372 8.91185 5.86149 8.91262 5.63728C8.91432 5.53293 8.95976 5.43349 9.03897 5.36083C9.11818 5.28816 9.22466 5.24822 9.335 5.24978C9.39088 5.24926 9.4463 5.25931 9.49801 5.27934C9.54972 5.29937 9.59667 5.32898 9.63609 5.36642C9.67552 5.40387 9.70663 5.44839 9.72759 5.49738C9.74856 5.54636 9.75894 5.59882 9.75815 5.65166C9.75119 5.87538 9.56384 6.04134 9.32005 6.03915Z" fill="#E56F20"/>
</g>
</svg>
